# xmcd
#
# Track frame offsets: 
#        150
#        25085
#        54026
#        65893
#        88810
#        125490
#        137548
#        154480
#
# Disc length: 2278 seconds
#
# Revision: 0
# Processed by: cddbd v1.5.1PL2 Copyright (c) Steve Scherf et al.
# Submitted via: ExactAudioCopy v0.95b3
#
DISCID=6a08e408
DTITLE=Van Morrison - Rockefeller Music Hall
DYEAR=1986
DGENRE=Celtic
TTITLE0=A Sense Of Wonder
TTITLE1=And The Healing Has Begun
TTITLE2=Gloria
TTITLE3=In The Garden
TTITLE4=Summertime In England
TTITLE5=Bright Side Of The Road
TTITLE6=Full Force Gale
TTITLE7=Domino
EXTD=
EXTT0=
EXTT1=
EXTT2=
EXTT3=
EXTT4=
EXTT5=
EXTT6=
EXTT7=
PLAYORDER=
